<svg width="800" height="800" viewBox="0 0 800 800" fill="none" xmlns="http://www.w3.org/2000/svg">
<path d="M183.568 86.9377L194.83 100.118L204.529 115.376L211.564 128.887L221.191 151.255L226.512 168.326L230.691 189.802L232.018 206.705L232.927 222.541L233.438 248.848L232.856 267.091L230.658 288.06L227.597 309.358L220.315 343.335L214.169 364.43L206.96 385.874L201.483 401.358L196.342 417.574L191.868 435.544L186.651 463.913L184.836 478.565L184.246 493.317L184.887 527.671L186.639 542.207L190.478 556.335L202.451 587.51L209.116 600.522L217.691 612.363L249.336 647.477L260.181 657.318L272.324 665.502L312.973 687.325L326.493 692.995L340.728 696.381L369.2 700.979L399.768 701.978L430.335 700.979L458.807 696.381L473.043 692.995L486.563 687.325L527.211 665.502L539.355 657.318L550.199 647.477L581.844 612.363L590.419 600.522L597.085 587.51L609.057 556.335L612.896 542.207L614.648 527.671L615.289 493.317L614.699 478.565L612.884 463.913L607.667 435.544L603.193 417.574L598.052 401.358L592.575 385.874L585.367 364.43L579.22 343.335L571.938 309.358L568.877 288.06L566.679 267.091L566.098 248.848L566.608 222.541L567.517 206.705L568.845 189.802L573.023 168.326L578.345 151.255L587.971 128.887L595.006 115.376L604.705 100.118L615.967 86.9377L626.83 76.5524L637.462 68.184L652.482 57.0131L665.359 47.7714L679.485 39L679.535 96.8348L672.256 100.94L664.781 106.293L653.622 115.581L644.402 126.796L641.796 130.97L634.789 143.954L628.972 157.514L626.366 164.832L622.429 179.03L619.961 193.555L617.695 216.924L617.018 231.688L617.409 246.462L619.932 279.038L621.931 293.666L625.139 308.077L634.462 340.797L638.882 354.936L643.809 368.907L655.541 399.654L660.109 413.711L663.662 428.058L670.526 463.272L672.566 477.904L673.481 492.649L673.729 523.483L672.625 538.143L669.794 552.569L665.159 573.303L656.678 600.938L649.451 616.042L638.83 633.69L621.27 658.562L610.269 670.252L587.11 692.12L562.835 711.169L545.397 722.697L523.608 733.566L497.496 743.908L482.856 749.383L468.015 754.263L449.589 757.815L430.924 760.148L399.768 761.228L368.612 760.148L349.946 757.815L331.521 754.263L316.679 749.383L302.039 743.908L275.928 733.566L254.138 722.697L236.701 711.169L212.425 692.12L189.267 670.252L178.266 658.562L160.705 633.69L150.084 616.042L142.857 600.938L134.376 573.303L129.741 552.569L126.91 538.143L125.807 523.483L126.054 492.649L126.969 477.904L129.009 463.272L135.873 428.058L139.427 413.711L143.994 399.654L155.726 368.907L160.653 354.936L165.074 340.797L174.396 308.077L177.604 293.666L179.604 279.038L182.127 246.462L182.517 231.688L181.841 216.924L179.575 193.555L177.106 179.03L173.17 164.832L170.563 157.514L164.747 143.954L157.739 130.97L155.134 126.796L145.913 115.581L134.755 106.293L127.279 100.94L120 96.8348L120.05 39L134.176 47.7714L147.053 57.0131L162.074 68.184L172.705 76.5524L183.568 86.9377Z" fill="url(#paint0_linear_58_4)"/>
<path d="M183.568 86.9377L172.705 76.5524L162.074 68.184L147.053 57.0131L134.176 47.7714L120.05 39L120 96.8348L127.279 100.94L134.755 106.293L145.913 115.581L155.134 126.796L157.739 130.97L164.747 143.954L170.563 157.514L173.17 164.832L177.106 179.03L179.575 193.555L181.841 216.924L182.517 231.688L182.127 246.462L179.604 279.038L177.604 293.666L174.396 308.077L165.074 340.797L160.653 354.936L155.726 368.907L143.994 399.654L139.427 413.711L135.873 428.058L129.009 463.272L126.969 477.904L126.054 492.649L125.807 523.483L126.91 538.143L129.741 552.569L134.376 573.303L142.857 600.938L150.084 616.042L160.705 633.69L178.266 658.562L189.267 670.252L212.425 692.12L236.701 711.169L254.138 722.697L275.928 733.566L302.039 743.908L316.679 749.383L331.521 754.263L349.946 757.815L368.612 760.148L399.768 761.228L430.924 760.148L449.589 757.815L468.015 754.263L482.856 749.383L497.496 743.908L523.608 733.566L545.397 722.697L562.835 711.169L587.11 692.12L610.269 670.252L621.27 658.562L638.83 633.69L649.451 616.042L656.678 600.938L665.159 573.303L669.794 552.569L672.625 538.143L673.729 523.483L673.481 492.649L672.566 477.904L670.526 463.272L663.662 428.058L660.109 413.711L655.541 399.654L643.809 368.907L638.882 354.936L634.462 340.797L625.139 308.077L621.931 293.666L619.932 279.038L617.409 246.462L617.018 231.688L617.695 216.924L619.961 193.555L622.429 179.03L626.366 164.832L628.972 157.514L634.789 143.954L641.796 130.97L644.402 126.796L653.622 115.581L664.781 106.293L672.256 100.94L679.535 96.8348L679.485 39L665.359 47.7714L652.482 57.0131L637.462 68.184L626.83 76.5524L615.967 86.9377L604.705 100.118L595.006 115.376L587.971 128.887L578.345 151.255L573.023 168.326L568.845 189.802L567.517 206.705L566.608 222.541L566.098 248.848L566.679 267.091L568.877 288.06L571.938 309.358L579.22 343.335L585.367 364.43L592.575 385.874L598.052 401.358L603.193 417.574L607.667 435.544L612.884 463.913L614.699 478.565L615.289 493.317L614.648 527.671L612.896 542.207L609.057 556.335L597.085 587.51L590.419 600.522L581.844 612.363L550.199 647.477L539.355 657.318L527.211 665.502L486.563 687.325L473.043 692.995L458.807 696.381L430.335 700.979L399.768 701.978L369.2 700.979L340.728 696.381L326.493 692.995L312.973 687.325L272.324 665.502L260.181 657.318L249.336 647.477L217.691 612.363L209.116 600.522L202.451 587.51L190.478 556.335L186.639 542.207L184.887 527.671L184.246 493.317L184.836 478.565L186.651 463.913L191.868 435.544L196.342 417.574L201.483 401.358L206.96 385.874L214.169 364.43L220.315 343.335L227.597 309.358L230.658 288.06L232.856 267.091L233.438 248.848L232.927 222.541L232.018 206.705L230.691 189.802L226.512 168.326L221.191 151.255L211.564 128.887L204.529 115.376L194.83 100.118L183.568 86.9377Z" fill="url(#paint1_linear_58_4)"/>
<defs>
<linearGradient id="paint0_linear_58_4" x1="399.768" y1="39" x2="399.768" y2="761.228" gradientUnits="userSpaceOnUse">
<stop stop-color="#172F44"/>
<stop offset="1" stop-color="#00E5CF"/>
</linearGradient>
<linearGradient id="paint1_linear_58_4" x1="399.768" y1="39" x2="399.768" y2="761.228" gradientUnits="userSpaceOnUse">
<stop stop-color="#172F44"/>
<stop offset="1" stop-color="#00E5CF"/>
</linearGradient>
</defs>
</svg>
